# xmcd
#
# Track frame offsets:
#	150
#	23223
#	44390
#	66988
#	87595
#	110940
#	130878
#	153930
#
# Disc length: 2340 seconds
#
# Revision: 4
# Processed by: cddbd v1.5.2PL0 Copyright (c) Steve Scherf et al.
# Submitted via: EasyCDDAExtractor 15.3.0.1
#
DISCID=6f092208
DTITLE=Victor Manuelle - Solo Contigo
DYEAR=1994
DGENRE=Latin
TTITLE0=Apiadate De Mi
TTITLE1=No Alcanzo
TTITLE2=La Escena
TTITLE3=Solo Contigo
TTITLE4=Te Llevo Dentro
TTITLE5=Mi Sudor A Tu Silueta
TTITLE6=Voy A Prometerme
TTITLE7=Por Ejemplo
EXTD=YEAR: 1994 ID3G: 123
EXTT0=
EXTT1=
EXTT2=
EXTT3=
EXTT4=
EXTT5=
EXTT6=
EXTT7=
PLAYORDER=
